<svg width="100" height="20" viewBox="0 0 100 20" fill="none" xmlns="http://www.w3.org/2000/svg">
<g clip-path="url(#clip0_216_11305)">
<path d="M9.04588 0.219917C8.94399 0.110087 8.88708 0.0496805 8.76974 0.0200265C8.62769 -0.0133758 8.47488 -0.00477564 8.34042 0.044189C8.20762 0.0991039 8.12119 0.20454 7.44665 0.971701C6.77211 1.73886 5.50945 3.1683 4.17724 4.67736C2.84502 6.18642 1.44394 7.7806 0.734266 8.60816C0.0245926 9.43573 0 9.50053 0 9.55984C0 9.61915 0.033727 9.68175 0.385753 10.0277C0.737779 10.3737 1.41092 11.0052 2.08405 11.6367C2.75719 12.2682 3.43103 12.8998 3.82872 13.2325C4.22642 13.5653 4.34798 13.6005 4.52364 13.4456C4.6993 13.2908 4.92766 12.9459 5.10614 12.634C5.24844 12.3905 5.37117 12.1403 5.47362 11.8849C5.53264 11.7268 5.5214 11.69 5.45676 11.6296C5.32491 11.5193 5.18584 11.4145 5.04009 11.3155C4.80611 11.1469 4.45548 10.8948 4.06341 10.6252C3.67133 10.3556 3.2378 10.0678 3.00944 9.86022C2.78108 9.65264 2.75789 9.52414 2.85696 9.31821C2.95604 9.11228 3.17737 8.82837 3.73738 8.11008C4.29739 7.3918 5.19467 6.24298 6.17837 4.97994L8.79292 1.62684C9.35504 0.909098 9.40071 0.847044 9.42531 0.797072C9.4499 0.747099 9.44568 0.709208 9.3712 0.606517C9.29672 0.503826 9.14917 0.335787 9.04728 0.222113" fill="white"/>
<path d="M6.27805 19.7787C6.37994 19.8918 6.43685 19.9511 6.55419 19.9808C6.69624 20.0142 6.84905 20.0056 6.98351 19.9566C7.11631 19.9017 7.20203 19.7963 7.87728 19.0291C8.55252 18.262 9.81448 16.8325 11.1467 15.3235C12.4789 13.8144 13.88 12.2202 14.5897 11.3927C15.2993 10.5651 15.3246 10.5025 15.3204 10.441C15.3162 10.3795 15.2867 10.3191 14.9354 9.97311C14.584 9.62714 13.9123 8.99562 13.2392 8.3641C12.566 7.73258 11.8922 7.10106 11.4952 6.76827C11.0982 6.43549 10.9752 6.40035 10.8003 6.5552C10.6253 6.71006 10.3963 7.05493 10.2171 7.36685C10.0751 7.61042 9.95238 7.86056 9.84961 8.11588C9.79058 8.27404 9.80253 8.31028 9.86717 8.37124C9.99902 8.48151 10.1381 8.58635 10.2838 8.68535C10.5178 8.85394 10.8684 9.106 11.2598 9.37563C11.6512 9.64526 12.0861 9.93302 12.3138 10.1406C12.5414 10.3482 12.5653 10.4767 12.4663 10.6826C12.3672 10.8885 12.1452 11.1724 11.5858 11.8907C11.0265 12.609 10.1286 13.7578 9.14485 15.0209L6.53452 18.3745C5.9724 19.0923 5.92673 19.1543 5.90214 19.2043C5.87754 19.2543 5.88176 19.2922 5.95624 19.3948C6.03072 19.4975 6.17828 19.6656 6.28016 19.7793" fill="white"/>
<path d="M30.2946 5.12891V6.54571H26.2846C24.2877 6.54571 23.4115 7.32605 23.4115 9.18766C23.4115 11.0366 24.2722 11.817 26.2846 11.817H30.2946V13.2354H26.2846C23.2583 13.2354 21.5986 11.9027 21.5986 9.18931C21.5986 6.46334 23.2737 5.13055 26.2846 5.13055L30.2946 5.12891Z" fill="white"/>
<path d="M34.6585 5.12891V8.43094H39.9593V5.12891H41.7862V13.2354H39.9593V9.84774H34.6585V13.2354H32.8457V5.12891H34.6585Z" fill="white"/>
<path d="M45.6893 13.234H43.6924L47.3335 6.02971C47.7178 5.27298 48.4247 4.98633 49.5152 4.98633C50.591 4.98633 51.2978 5.27408 51.666 6.02971L55.1694 13.234H53.1563L50.0071 6.7123C49.9753 6.62816 49.9076 6.55505 49.8154 6.5051C49.7231 6.45516 49.6117 6.43138 49.4998 6.43773C49.2538 6.43773 49.0852 6.52175 48.9777 6.7123L45.6893 13.234Z" fill="white"/>
<path d="M62.6662 5.12891C65.0018 5.12891 66.0003 6.25741 66.0003 7.5545C66.0003 8.56328 65.3855 9.64126 63.8031 9.99217L66.2153 13.2321H64.2029L61.8364 10.0998H59.1326C58.9633 10.0998 58.8713 10.1602 58.8713 10.3041V13.2354H57.0584V10.0279C57.0584 9.11518 57.5503 8.7434 58.6872 8.7434H62.7281C63.7575 8.7434 64.172 8.19096 64.172 7.61435C64.172 7.03775 63.7265 6.54571 62.7281 6.54571H57.043V5.12891H62.6662Z" fill="white"/>
<path d="M76.7708 5.12891V6.54571H72.4994C70.5018 6.54571 69.6263 7.32605 69.6263 9.18767C69.6263 11.0366 70.4871 11.817 72.4994 11.817H74.2202C75.2341 11.817 75.6641 11.337 75.6641 10.6764C75.6641 10.0279 75.2341 9.64401 74.3888 9.64401H72.0849V8.40678H74.5736C76.4174 8.40678 77.3238 9.2953 77.3238 10.7006C77.3238 12.1174 76.4174 13.2338 74.0973 13.2338H72.4994C69.4724 13.2338 67.8135 11.901 67.8135 9.18767C67.8135 6.46169 69.4879 5.12891 72.4994 5.12891H76.7708Z" fill="white"/>
<path d="M88.0626 5.12891V6.54571H82.8693C81.7788 6.54571 81.3024 6.9422 81.3024 7.56658C81.3024 8.22556 81.8399 8.52704 82.8848 8.52704H87.9853V9.81205H82.8419C81.7971 9.81205 81.2595 10.136 81.2595 10.7967C81.2595 11.4331 81.7669 11.817 82.8264 11.817H88.0808V13.2354H82.8264C80.3672 13.2354 79.3701 12.2871 79.3701 11.0262C79.3701 10.1014 79.9076 9.47762 80.8604 9.16515C79.8908 8.85104 79.3989 8.22666 79.3989 7.33813C79.3989 6.04159 80.4283 5.12891 82.8714 5.12891H88.0626Z" fill="white"/>
<path d="M95.3299 5.12891C98.3569 5.12891 100 6.44961 100 9.18767C100 11.9131 98.3717 13.2338 95.3299 13.2338H91.6762C91.0923 13.2338 90.8154 13.018 90.8154 12.5748V5.78953C90.8154 5.34527 91.0923 5.13055 91.6762 5.13055L95.3299 5.12891ZM92.6262 11.6731C92.6262 11.7829 92.6873 11.817 92.8257 11.817H95.3299C97.3423 11.817 98.1876 11.0367 98.1876 9.17558C98.1876 7.32605 97.3444 6.54571 95.3299 6.54571H92.8257C92.6852 6.54571 92.6262 6.58195 92.6262 6.69014V11.6731Z" fill="white"/>
</g>
<defs>
<clipPath id="clip0_216_11305">
<rect width="100" height="20" fill="white"/>
</clipPath>
</defs>
</svg>
