<svg width="160" height="41" viewBox="0 0 160 41" fill="none" xmlns="http://www.w3.org/2000/svg">
<g clip-path="url(#clip0_206_22268)">
<path d="M14.4734 0.938613C14.3104 0.718953 14.2193 0.59814 14.0316 0.538832C13.8043 0.472028 13.5598 0.489228 13.3447 0.587157C13.1322 0.696987 12.9939 0.90786 11.9146 2.44218C10.8354 3.9765 8.81513 6.83537 6.68358 9.85349C4.55203 12.8716 2.3103 16.06 1.17483 17.7151C0.0393482 19.3702 0 19.4998 0 19.6185C0 19.7371 0.0539632 19.8623 0.617205 20.5542C1.18045 21.2461 2.25746 22.5092 3.33448 23.7722C4.4115 25.0353 5.48964 26.2983 6.12596 26.9639C6.76227 27.6294 6.95677 27.6997 7.23783 27.39C7.51888 27.0803 7.88426 26.3906 8.16982 25.7667C8.3975 25.2798 8.59387 24.7795 8.75779 24.2686C8.85223 23.9523 8.83424 23.8788 8.73081 23.7579C8.51986 23.5374 8.29734 23.3277 8.06414 23.1297C7.68977 22.7925 7.12877 22.2884 6.50145 21.7492C5.87413 21.2099 5.18048 20.6344 4.8151 20.2192C4.44972 19.8041 4.41262 19.5471 4.57114 19.1352C4.72966 18.7233 5.08379 18.1555 5.97981 16.7189C6.87582 15.2824 8.31147 12.9847 9.8854 10.4587L14.0687 3.75245C14.9681 2.31698 15.0411 2.19287 15.0805 2.09292C15.1198 1.99298 15.1131 1.9172 14.9939 1.71181C14.8748 1.50643 14.6387 1.17035 14.4757 0.943006" fill="white"/>
<path d="M10.0449 40.0563C10.2079 40.2826 10.299 40.4012 10.4867 40.4605C10.714 40.5273 10.9585 40.5101 11.1736 40.4122C11.3861 40.3023 11.5233 40.0914 12.6036 38.5571C13.684 37.0228 15.7032 34.1639 17.8347 31.1458C19.9663 28.1277 22.208 24.9393 23.3435 23.2842C24.4789 21.6291 24.5194 21.5039 24.5127 21.3809C24.5059 21.2579 24.4587 21.137 23.8966 20.4451C23.3345 19.7532 22.2597 18.4901 21.1827 17.2271C20.1057 15.9641 19.0275 14.701 18.3923 14.0355C17.7571 13.3699 17.5604 13.2996 17.2805 13.6093C17.0005 13.919 16.634 14.6088 16.3473 15.2326C16.1202 15.7197 15.9238 16.22 15.7594 16.7307C15.6649 17.047 15.684 17.1195 15.7875 17.2414C15.9984 17.4619 16.221 17.6716 16.4541 17.8696C16.8285 18.2068 17.3895 18.7109 18.0157 19.2502C18.6419 19.7894 19.3378 20.3649 19.7021 20.7801C20.0663 21.1952 20.1045 21.4523 19.946 21.8641C19.7875 22.276 19.4322 22.8438 18.5374 24.2804C17.6425 25.7169 16.2057 28.0146 14.6318 30.5407L10.4552 37.248C9.55584 38.6834 9.48277 38.8075 9.44342 38.9075C9.40407 39.0074 9.41082 39.0832 9.52998 39.2886C9.64915 39.494 9.88524 39.8301 10.0483 40.0574" fill="white"/>
<path d="M48.4711 10.7559V13.5895H42.0551C38.8601 13.5895 37.4581 15.1501 37.4581 18.8734C37.4581 22.5713 38.8353 24.132 42.0551 24.132H48.4711V26.9689H42.0551C37.2131 26.9689 34.5576 24.3034 34.5576 18.8767C34.5576 13.4247 37.2378 10.7592 42.0551 10.7592L48.4711 10.7559Z" fill="white"/>
<path d="M55.4528 10.7559V17.3599H63.934V10.7559H66.857V26.9689H63.934V20.1935H55.4528V26.9689H52.5522V10.7559H55.4528Z" fill="white"/>
<path d="M73.1023 26.969H69.9072L75.733 12.5604C76.348 11.0469 77.4789 10.4736 79.2238 10.4736C80.945 10.4736 82.0759 11.0491 82.665 12.5604L88.2705 26.969H85.0495L80.0107 13.9256C79.9599 13.7573 79.8516 13.6111 79.704 13.5112C79.5563 13.4113 79.3782 13.3637 79.199 13.3764C78.8055 13.3764 78.5357 13.5445 78.3637 13.9256L73.1023 26.969Z" fill="white"/>
<path d="M100.266 10.7559C104.003 10.7559 105.6 13.0129 105.6 15.607C105.6 17.6246 104.617 19.7806 102.085 20.4824L105.944 26.9623H102.724L98.9381 20.6976H94.612C94.3411 20.6976 94.1938 20.8185 94.1938 21.1062V26.9689H91.2933V20.5538C91.2933 18.7284 92.0802 17.9849 93.8993 17.9849H100.365C102.012 17.9849 102.675 16.88 102.675 15.7268C102.675 14.5735 101.962 13.5895 100.365 13.5895H91.2686V10.7559H100.266Z" fill="white"/>
<path d="M122.833 10.7559V13.5895H115.999C112.802 13.5895 111.402 15.1501 111.402 18.8734C111.402 22.5713 112.779 24.132 115.999 24.132H118.752C120.374 24.132 121.062 23.1721 121.062 21.8509C121.062 20.5538 120.374 19.7861 119.022 19.7861H115.335V17.3116H119.317C122.267 17.3116 123.717 19.0886 123.717 21.8992C123.717 24.7328 122.267 26.9656 118.555 26.9656H115.999C111.155 26.9656 108.501 24.3001 108.501 18.8734C108.501 13.4214 111.18 10.7559 115.999 10.7559H122.833Z" fill="white"/>
<path d="M140.901 10.7559V13.5895H132.591C130.847 13.5895 130.084 14.3824 130.084 15.6312C130.084 16.9492 130.944 17.5521 132.616 17.5521H140.777V20.1221H132.548C130.876 20.1221 130.016 20.7701 130.016 22.0914C130.016 23.3643 130.827 24.132 132.523 24.132H140.93V26.9689H132.523C128.588 26.9689 126.993 25.0722 126.993 22.5505C126.993 20.7009 127.853 19.4533 129.377 18.8283C127.826 18.2001 127.039 16.9514 127.039 15.1743C127.039 12.5812 128.686 10.7559 132.595 10.7559H140.901Z" fill="white"/>
<path d="M152.527 10.7559C157.371 10.7559 160 13.3973 160 18.8734C160 24.3242 157.394 26.9656 152.527 26.9656H146.681C145.747 26.9656 145.304 26.534 145.304 25.6477V12.0771C145.304 11.1886 145.747 10.7592 146.681 10.7592L152.527 10.7559ZM148.201 23.8443C148.201 24.0639 148.299 24.132 148.521 24.132H152.527C155.747 24.132 157.1 22.5713 157.1 18.8492C157.1 15.1501 155.751 13.5895 152.527 13.5895H148.521C148.296 13.5895 148.201 13.662 148.201 13.8783V23.8443Z" fill="white"/>
</g>
<defs>
<clipPath id="clip0_206_22268">
<rect width="160" height="40" fill="white" transform="translate(0 0.5)"/>
</clipPath>
</defs>
</svg>
