<svg width="126" height="32" viewBox="0 0 126 32" fill="none" xmlns="http://www.w3.org/2000/svg">
<g clip-path="url(#clip0_101_8535)">
<path d="M11.3115 0.351256C11.1841 0.175529 11.1129 0.0788785 10.9662 0.031432C10.7886 -0.0220117 10.5975 -0.00825137 10.4294 0.0700921C10.2633 0.157956 10.1552 0.326654 9.31175 1.55411C8.46826 2.78157 6.88936 5.06866 5.22347 7.48316C3.55759 9.89766 1.80559 12.4483 0.918171 13.7725C0.0307521 15.0966 0 15.2002 0 15.2951C0 15.39 0.0421743 15.4902 0.482369 16.0437C0.922565 16.5973 1.76429 17.6077 2.60603 18.6181C3.44776 19.6286 4.29036 20.639 4.78767 21.1715C5.28498 21.7039 5.43698 21.7601 5.65664 21.5124C5.8763 21.2646 6.16185 20.7128 6.38503 20.2137C6.56297 19.8242 6.71644 19.4239 6.84455 19.0153C6.91836 18.7622 6.9043 18.7034 6.82346 18.6067C6.6586 18.4303 6.48469 18.2625 6.30243 18.1041C6.00985 17.8344 5.57141 17.4311 5.08113 16.9997C4.59086 16.5683 4.04874 16.1079 3.76319 15.7757C3.47763 15.4436 3.44863 15.238 3.57252 14.9085C3.69641 14.579 3.97318 14.1248 4.67345 12.9755C5.37372 11.8263 6.49573 9.98816 7.72582 7.96729L10.9952 2.60233C11.6981 1.45395 11.7552 1.35466 11.786 1.2747C11.8167 1.19475 11.8115 1.13412 11.7183 0.969817C11.6252 0.805512 11.4407 0.536649 11.3133 0.354771" fill="black"/>
<path d="M7.85068 31.645C7.97808 31.826 8.04925 31.9209 8.19598 31.9683C8.37361 32.0218 8.56469 32.008 8.73282 31.9297C8.89888 31.8418 9.00608 31.6731 9.85044 30.4457C10.6948 29.2182 12.2728 26.9311 13.9387 24.5166C15.6046 22.1021 17.3566 19.5514 18.244 18.2273C19.1314 16.9032 19.1631 16.803 19.1578 16.7046C19.1525 16.6062 19.1156 16.5096 18.6763 15.956C18.237 15.4025 17.397 14.3921 16.5553 13.3816C15.7136 12.3712 14.871 11.3608 14.3745 10.8283C13.8781 10.2959 13.7243 10.2396 13.5056 10.4874C13.2868 10.7352 13.0003 11.287 12.7763 11.786C12.5987 12.1757 12.4453 12.576 12.3168 12.9845C12.243 13.2375 12.2579 13.2955 12.3387 13.3931C12.5036 13.5695 12.6775 13.7372 12.8598 13.8956C13.1523 14.1654 13.5908 14.5687 14.0802 15.0001C14.5696 15.4315 15.1135 15.8919 15.3981 16.224C15.6828 16.5561 15.7127 16.7618 15.5888 17.0912C15.4649 17.4207 15.1873 17.875 14.4879 19.0242C13.7885 20.1735 12.6656 22.0116 11.4355 24.0325L8.17138 29.3983C7.46847 30.5467 7.41136 30.646 7.38061 30.7259C7.34986 30.8059 7.35513 30.8665 7.44826 31.0308C7.5414 31.1951 7.72591 31.464 7.85331 31.6459" fill="black"/>
<path d="M37.8823 8.20471V10.4716H32.8679C30.3708 10.4716 29.2752 11.7201 29.2752 14.6987C29.2752 17.6571 30.3515 18.9056 32.8679 18.9056H37.8823V21.1752H32.8679C29.0836 21.1752 27.0083 19.0427 27.0083 14.7014C27.0083 10.3398 29.103 8.20735 32.8679 8.20735L37.8823 8.20471Z" fill="black"/>
<path d="M43.3386 8.20471V13.488H49.9671V8.20471H52.2515V21.1752H49.9671V15.7548H43.3386V21.1752H41.0718V8.20471H43.3386Z" fill="black"/>
<path d="M57.1323 21.1751H54.6353L59.1883 9.64829C59.6689 8.43753 60.5528 7.97888 61.9165 7.97888C63.2617 7.97888 64.1456 8.43929 64.606 9.64829L68.9868 21.1751H66.4696L62.5315 10.7404C62.4918 10.6058 62.4072 10.4888 62.2918 10.4089C62.1764 10.329 62.0371 10.291 61.8972 10.3011C61.5896 10.3011 61.3788 10.4356 61.2443 10.7404L57.1323 21.1751Z" fill="black"/>
<path d="M78.3618 8.20471C81.2823 8.20471 82.5309 10.0103 82.5309 12.0857C82.5309 13.6997 81.7621 15.4245 79.7834 15.9859L82.7997 21.1699H80.2833L77.3241 16.1581H73.9431C73.7314 16.1581 73.6163 16.2548 73.6163 16.485V21.1752H71.3494V16.043C71.3494 14.5827 71.9644 13.9879 73.3861 13.9879H78.4391C79.7263 13.9879 80.2447 13.104 80.2447 12.1814C80.2447 11.2589 79.6876 10.4716 78.4391 10.4716H71.3301V8.20471H78.3618Z" fill="black"/>
<path d="M95.9987 8.20471V10.4716H90.6575C88.1595 10.4716 87.0647 11.7201 87.0647 14.6987C87.0647 17.6571 88.1411 18.9056 90.6575 18.9056H92.8092C94.0771 18.9056 94.6148 18.1377 94.6148 17.0807C94.6148 16.043 94.0771 15.4289 93.0201 15.4289H90.1391V13.4493H93.2512C95.5567 13.4493 96.6901 14.8709 96.6901 17.1194C96.6901 19.3863 95.5567 21.1725 92.6555 21.1725H90.6575C86.8723 21.1725 84.7979 19.0401 84.7979 14.6987C84.7979 10.3372 86.8916 8.20471 90.6575 8.20471H95.9987Z" fill="black"/>
<path d="M110.119 8.20471V10.4716H103.625C102.261 10.4716 101.666 11.106 101.666 12.105C101.666 13.1594 102.338 13.6417 103.644 13.6417H110.022V15.6977H103.591C102.284 15.6977 101.612 16.2161 101.612 17.2731C101.612 18.2915 102.247 18.9056 103.572 18.9056H110.142V21.1752H103.572C100.496 21.1752 99.2495 19.6578 99.2495 17.6404C99.2495 16.1608 99.9217 15.1626 101.113 14.6627C99.9006 14.1601 99.2855 13.1611 99.2855 11.7395C99.2855 9.66501 100.573 8.20471 103.628 8.20471H110.119Z" fill="black"/>
<path d="M119.206 8.20471C122.991 8.20471 125.046 10.3178 125.046 14.6987C125.046 19.0594 123.009 21.1725 119.206 21.1725H114.637C113.907 21.1725 113.561 20.8272 113.561 20.1182V9.26171C113.561 8.5509 113.907 8.20735 114.637 8.20735L119.206 8.20471ZM115.825 18.6754C115.825 18.8512 115.901 18.9056 116.074 18.9056H119.206C121.722 18.9056 122.779 17.6571 122.779 14.6794C122.779 11.7201 121.725 10.4716 119.206 10.4716H116.074C115.899 10.4716 115.825 10.5296 115.825 10.7027V18.6754Z" fill="black"/>
</g>
<defs>
<clipPath id="clip0_101_8535">
<rect width="125.046" height="32" fill="white"/>
</clipPath>
</defs>
</svg>
